<svg width="30" height="30" viewBox="0 0 49 49" fill="none" xmlns="http://www.w3.org/2000/svg">
<g clip-path="url(#clip0_21_633)">
<path d="M38.7917 12.25H34.7083C34.7083 6.615 30.135 2.04166 24.5 2.04166C18.865 2.04166 14.2917 6.615 14.2917 12.25H10.2083C7.95229 12.25 6.14542 14.0773 6.14542 16.3333L6.125 40.8333C6.125 43.0894 7.95229 44.9167 10.2083 44.9167H38.7917C41.0477 44.9167 42.875 43.0894 42.875 40.8333V16.3333C42.875 14.0773 41.0477 12.25 38.7917 12.25ZM24.5 6.125C27.879 6.125 30.625 8.87104 30.625 12.25H18.375C18.375 8.87104 21.121 6.125 24.5 6.125ZM24.5 26.5417C18.865 26.5417 14.2917 21.9683 14.2917 16.3333H18.375C18.375 19.7123 21.121 22.4583 24.5 22.4583C27.879 22.4583 30.625 19.7123 30.625 16.3333H34.7083C34.7083 21.9683 30.135 26.5417 24.5 26.5417Z" fill="#1B81BA"/>
</g>
<defs>
<clipPath id="clip0_21_633">
<rect width="49" height="49" fill="white"/>
</clipPath>
</defs>
</svg>
