<svg width="30" height="30" viewBox="0 0 41 41" fill="none" xmlns="http://www.w3.org/2000/svg">
<g clip-path="url(#clip0_21_230)">
<path d="M32.4583 10.25H29.0417C29.0417 5.53501 25.215 1.70834 20.5 1.70834C15.785 1.70834 11.9583 5.53501 11.9583 10.25H8.54167C6.65396 10.25 5.14208 11.779 5.14208 13.6667L5.125 34.1667C5.125 36.0544 6.65396 37.5833 8.54167 37.5833H32.4583C34.346 37.5833 35.875 36.0544 35.875 34.1667V13.6667C35.875 11.779 34.346 10.25 32.4583 10.25ZM20.5 5.12501C23.3273 5.12501 25.625 7.42272 25.625 10.25H15.375C15.375 7.42272 17.6727 5.12501 20.5 5.12501ZM20.5 22.2083C15.785 22.2083 11.9583 18.3817 11.9583 13.6667H15.375C15.375 16.494 17.6727 18.7917 20.5 18.7917C23.3273 18.7917 25.625 16.494 25.625 13.6667H29.0417C29.0417 18.3817 25.215 22.2083 20.5 22.2083Z" fill="black"/>
</g>
<defs>
<clipPath id="clip0_21_230">
<rect width="41" height="41" fill="white"/>
</clipPath>
</defs>
</svg>
