<svg width="25" height="25" viewBox="0 0 30 30" fill="none" xmlns="http://www.w3.org/2000/svg">
<g clip-path="url(#clip0_99_2)">
<path d="M16.9885 15L29.1193 2.86927C29.6686 2.32041 29.6686 1.42961 29.1193 0.880748C28.57 0.33143 27.6801 0.33143 27.1307 0.880748L15 13.0115L2.86927 0.880739C2.31995 0.33142 1.43006 0.33142 0.880748 0.880739C0.33143 1.4296 0.33143 2.3204 0.880748 2.86926L13.0115 15L0.880739 27.1307C0.33142 27.6796 0.33142 28.5704 0.880739 29.1193C1.1554 29.3939 1.5152 29.5313 1.875 29.5313C2.23481 29.5313 2.59461 29.3939 2.86927 29.1193L15 16.9885L27.1307 29.1193C27.4054 29.3939 27.7652 29.5313 28.125 29.5313C28.4848 29.5313 28.8446 29.3939 29.1193 29.1193C29.6686 28.5704 29.6686 27.6796 29.1193 27.1307L16.9885 15Z" fill="black"/>
</g>
<defs>
<clipPath id="clip0_99_2">
<rect width="30" height="30" fill="white"/>
</clipPath>
</defs>
</svg>
