<svg width="30" height="30" viewBox="0 0 49 49" fill="none" xmlns="http://www.w3.org/2000/svg">
<path d="M41.3438 3.0625H32.1562H7.65625C5.05312 3.0625 3.0625 5.05312 3.0625 7.65625V13.7812V38.2812V41.3438C3.0625 43.7938 5.05312 45.9375 7.65625 45.9375H35.2188H41.3438C43.9469 45.9375 45.9375 43.7938 45.9375 41.3438V7.65625C45.9375 5.05312 43.9469 3.0625 41.3438 3.0625ZM31.5438 42.875L16.8438 28.175L6.125 38.8937V34.6063L14.7 26.0312L6.125 17.4562V13.1688L13.7812 20.825L28.4813 6.125H32.7687L15.925 22.9688L17.9156 24.9594L35.8312 42.875H31.5438ZM33.075 33.3812C32.7688 33.5344 32.4625 33.6875 32.1562 33.6875C31.85 33.6875 31.5437 33.5344 31.2375 33.3812C30.625 32.9219 24.5 28.175 24.5 22.9688C24.5 18.6812 27.8687 15.3125 32.1562 15.3125C36.4437 15.3125 39.8125 18.6812 39.8125 22.9688C39.8125 28.175 33.6875 32.9219 33.075 33.3812Z" fill="#1B81BA"/>
<path d="M32.1562 26.0312C33.8476 26.0312 35.2188 24.6601 35.2188 22.9688C35.2188 21.2774 33.8476 19.9062 32.1562 19.9062C30.4649 19.9062 29.0938 21.2774 29.0938 22.9688C29.0938 24.6601 30.4649 26.0312 32.1562 26.0312Z" fill="#1B81BA"/>
</svg>
