<svg width="35" height="35" viewBox="0 0 49 49" fill="none" xmlns="http://www.w3.org/2000/svg">
<path d="M6.125 12.25C6.125 11.7085 6.3401 11.1892 6.72299 10.8063C7.10588 10.4234 7.62518 10.2083 8.16667 10.2083H40.8333C41.3748 10.2083 41.8941 10.4234 42.277 10.8063C42.6599 11.1892 42.875 11.7085 42.875 12.25C42.875 12.7915 42.6599 13.3108 42.277 13.6937C41.8941 14.0766 41.3748 14.2917 40.8333 14.2917H8.16667C7.62518 14.2917 7.10588 14.0766 6.72299 13.6937C6.3401 13.3108 6.125 12.7915 6.125 12.25ZM6.125 24.5C6.125 23.9585 6.3401 23.4392 6.72299 23.0563C7.10588 22.6734 7.62518 22.4583 8.16667 22.4583H40.8333C41.3748 22.4583 41.8941 22.6734 42.277 23.0563C42.6599 23.4392 42.875 23.9585 42.875 24.5C42.875 25.0415 42.6599 25.5608 42.277 25.9437C41.8941 26.3266 41.3748 26.5417 40.8333 26.5417H8.16667C7.62518 26.5417 7.10588 26.3266 6.72299 25.9437C6.3401 25.5608 6.125 25.0415 6.125 24.5ZM8.16667 34.7083C7.62518 34.7083 7.10588 34.9234 6.72299 35.3063C6.3401 35.6892 6.125 36.2085 6.125 36.75C6.125 37.2915 6.3401 37.8108 6.72299 38.1937C7.10588 38.5766 7.62518 38.7917 8.16667 38.7917H40.8333C41.3748 38.7917 41.8941 38.5766 42.277 38.1937C42.6599 37.8108 42.875 37.2915 42.875 36.75C42.875 36.2085 42.6599 35.6892 42.277 35.3063C41.8941 34.9234 41.3748 34.7083 40.8333 34.7083H8.16667Z" fill="black"/>
</svg>
