<svg width="30" height="30" viewBox="0 0 41 41" fill="none" xmlns="http://www.w3.org/2000/svg">
<path d="M20.5001 3.41667C17.1213 3.41667 13.8184 4.41859 11.0091 6.29573C8.19976 8.17287 6.01014 10.8409 4.71715 13.9625C3.42415 17.0841 3.08584 20.519 3.74501 23.8328C4.40417 27.1466 6.0312 30.1906 8.42035 32.5797C10.8095 34.9689 13.8535 36.5959 17.1673 37.2551C20.4811 37.9142 23.916 37.5759 27.0376 36.2829C30.1592 34.99 32.8272 32.8003 34.7044 29.991C36.5815 27.1817 37.5834 23.8788 37.5834 20.5C37.5834 18.2566 37.1415 16.0351 36.283 13.9625C35.4245 11.8898 34.1662 10.0066 32.5798 8.42026C30.9935 6.83393 29.1102 5.57558 27.0376 4.71706C24.965 3.85855 22.7435 3.41667 20.5001 3.41667ZM20.5001 30.75C20.1622 30.75 19.8319 30.6498 19.551 30.4621C19.2701 30.2744 19.0511 30.0076 18.9218 29.6954C18.7925 29.3833 18.7587 29.0398 18.8246 28.7084C18.8905 28.377 19.0532 28.0726 19.2921 27.8337C19.531 27.5948 19.8354 27.4321 20.1668 27.3662C20.4982 27.3002 20.8417 27.3341 21.1538 27.4634C21.466 27.5927 21.7328 27.8116 21.9205 28.0926C22.1082 28.3735 22.2084 28.7038 22.2084 29.0417C22.2084 29.4947 22.0284 29.9293 21.7081 30.2496C21.3877 30.57 20.9532 30.75 20.5001 30.75ZM22.2084 21.935V23.9167C22.2084 24.3697 22.0284 24.8043 21.7081 25.1246C21.3877 25.445 20.9532 25.625 20.5001 25.625C20.047 25.625 19.6125 25.445 19.2921 25.1246C18.9717 24.8043 18.7918 24.3697 18.7918 23.9167V20.5C18.7918 20.0469 18.9717 19.6124 19.2921 19.292C19.6125 18.9717 20.047 18.7917 20.5001 18.7917C21.0069 18.7917 21.5023 18.6414 21.9237 18.3598C22.3451 18.0782 22.6736 17.678 22.8675 17.2098C23.0615 16.7416 23.1122 16.2263 23.0134 15.7293C22.9145 15.2322 22.6704 14.7756 22.312 14.4172C21.9537 14.0588 21.4971 13.8148 21 13.7159C20.5029 13.617 19.9877 13.6678 19.5195 13.8617C19.0512 14.0557 18.651 14.3841 18.3694 14.8055C18.0879 15.2269 17.9376 15.7224 17.9376 16.2292C17.9376 16.6822 17.7576 17.1168 17.4372 17.4371C17.1169 17.7575 16.6823 17.9375 16.2293 17.9375C15.7762 17.9375 15.3417 17.7575 15.0213 17.4371C14.7009 17.1168 14.5209 16.6822 14.5209 16.2292C14.5165 15.1193 14.821 14.03 15.4005 13.0834C15.98 12.1368 16.8115 11.3701 17.802 10.8693C18.7925 10.3684 19.9028 10.1532 21.0087 10.2476C22.1146 10.342 23.1724 10.7424 24.0636 11.4039C24.9548 12.0654 25.6444 12.9619 26.055 13.9931C26.4656 15.0242 26.5811 16.1493 26.3885 17.2424C26.196 18.3355 25.703 19.3534 24.9647 20.1822C24.2264 21.011 23.2721 21.6179 22.2084 21.935Z" fill="black"/>
</svg>
