<svg width="30" height="30" viewBox="0 0 35 35" fill="none" xmlns="http://www.w3.org/2000/svg">
<g clip-path="url(#clip0_1_60)">
<path d="M25.0979 13.125L18.7104 3.56562C18.4333 3.14271 17.9667 2.94583 17.5 2.94583C17.0333 2.94583 16.5667 3.15 16.2896 3.56562L9.90208 13.125H2.91666C2.69158 13.1254 2.46962 13.1777 2.26808 13.278C2.06653 13.3782 1.89083 13.5235 1.75466 13.7028C1.61848 13.882 1.5255 14.0902 1.48296 14.3112C1.44041 14.5323 1.44945 14.7601 1.50937 14.9771L5.20624 28.4958C5.3794 29.1089 5.74804 29.6486 6.25608 30.0329C6.76413 30.4173 7.38379 30.6252 8.02083 30.625H26.9792C28.3208 30.625 29.451 29.7208 29.7865 28.4885L33.4833 14.9698C33.5198 14.8531 33.5417 14.7219 33.5417 14.5833C33.5417 13.7812 32.8854 13.125 32.0833 13.125H25.0979ZM13.125 13.125L17.5 6.70833L21.875 13.125H13.125ZM17.5 24.7917C15.8885 24.7917 14.5833 23.4865 14.5833 21.875C14.5833 20.2635 15.8885 18.9583 17.5 18.9583C19.1115 18.9583 20.4167 20.2635 20.4167 21.875C20.4167 23.4865 19.1115 24.7917 17.5 24.7917Z" fill="white"/>
</g>
<defs>
<clipPath id="clip0_1_60">
<rect width="35" height="35" fill="white"/>
</clipPath>
</defs>
</svg>
