<svg width="288" height="288" viewBox="0 0 288 288" fill="none" xmlns="http://www.w3.org/2000/svg">
<path d="M215.999 132C211.199 132 207.599 129.6 205.199 124.8L169.199 52.8C166.799 46.8 169.199 39.6 173.999 37.2C179.999 34.8 187.199 37.2 189.599 42L225.599 114C227.999 120 225.599 127.2 220.799 129.6C219.599 132 218.399 132 215.999 132ZM71.999 132C70.799 132 68.399 132 67.199 130.8C61.199 127.2 58.799 120 61.199 115.2L97.199 43.2C100.799 37.2 107.999 34.8 112.799 37.2C118.799 40.8 121.199 48 118.799 52.8L82.799 124.8C80.399 129.6 76.799 132 71.999 132Z" fill="#FF6464"/>
<path d="M243.6 117.6C238.8 111.6 231.6 108 224.4 108H63.5996C56.3996 108 49.1996 111.6 44.3996 117.6C39.5996 123.6 38.3996 130.8 40.7996 139.2L68.3996 235.2C71.9996 244.8 81.5996 252 91.1996 252H195.6C206.4 252 216 244.8 218.4 235.2L246 139.2C249.6 130.8 248.4 123.6 243.6 117.6Z" fill="#1B81BA"/>
<path d="M120 216C112.8 216 108 211.2 108 204V156C108 148.8 112.8 144 120 144C127.2 144 132 148.8 132 156V204C132 211.2 127.2 216 120 216ZM168 216C160.8 216 156 211.2 156 204V156C156 148.8 160.8 144 168 144C175.2 144 180 148.8 180 156V204C180 211.2 175.2 216 168 216Z" fill="white"/>
</svg>
