<svg width="30" height="30" viewBox="0 0 43 41" fill="none" xmlns="http://www.w3.org/2000/svg">
<g clip-path="url(#clip0_20_221)">
<path d="M30.6994 15.375L23.024 4.17688C22.6911 3.68146 22.1303 3.45084 21.5696 3.45084C21.0088 3.45084 20.4481 3.69 20.1151 4.17688L12.4398 15.375H4.04595C3.77549 15.3755 3.50879 15.4368 3.2666 15.5542C3.02442 15.6716 2.8133 15.8419 2.64967 16.0518C2.48603 16.2617 2.37431 16.5057 2.32319 16.7646C2.27206 17.0235 2.28293 17.2904 2.35492 17.5446L6.79716 33.3808C7.00524 34.099 7.44819 34.7312 8.05867 35.1814C8.66915 35.6317 9.41375 35.8752 10.1792 35.875H32.9599C34.5721 35.875 35.9302 34.8158 36.3332 33.3723L40.7755 17.536C40.8193 17.3994 40.8456 17.2456 40.8456 17.0833C40.8456 16.1438 40.057 15.375 39.0932 15.375H30.6994ZM16.3125 15.375L21.5696 7.85834L26.8267 15.375H16.3125ZM21.5696 29.0417C19.6332 29.0417 18.0649 27.5127 18.0649 25.625C18.0649 23.7373 19.6332 22.2083 21.5696 22.2083C23.5059 22.2083 25.0743 23.7373 25.0743 25.625C25.0743 27.5127 23.5059 29.0417 21.5696 29.0417Z" fill="black"/>
</g>
<defs>
<clipPath id="clip0_20_221">
<rect width="42.0567" height="41" fill="white" transform="translate(0.54126)"/>
</clipPath>
</defs>
</svg>
