<svg width="55" height="55" viewBox="0 0 55 55" fill="none" xmlns="http://www.w3.org/2000/svg">
<path d="M27.5001 25.2083C29.9312 25.2083 32.2628 24.2426 33.9819 22.5235C35.701 20.8044 36.6667 18.4728 36.6667 16.0417C36.6667 13.6105 35.701 11.2789 33.9819 9.55985C32.2628 7.84077 29.9312 6.875 27.5001 6.875C25.0689 6.875 22.7374 7.84077 21.0183 9.55985C19.2992 11.2789 18.3334 13.6105 18.3334 16.0417C18.3334 18.4728 19.2992 20.8044 21.0183 22.5235C22.7374 24.2426 25.0689 25.2083 27.5001 25.2083ZM27.5001 29.7917C23.9419 29.789 20.4321 30.6161 17.2496 32.2074C14.0671 33.7987 11.2995 36.1102 9.16675 38.9583C11.2995 41.8065 14.0671 44.118 17.2496 45.7093C20.4321 47.3005 23.9419 48.1277 27.5001 48.125C31.0583 48.1277 34.568 47.3005 37.7505 45.7093C40.9331 44.118 43.7006 41.8065 45.8334 38.9583C43.7006 36.1102 40.9331 33.7987 37.7505 32.2074C34.568 30.6161 31.0583 29.789 27.5001 29.7917Z" fill="white"/>
</svg>
