<svg width="30" height="30" viewBox="0 0 49 49" fill="none" xmlns="http://www.w3.org/2000/svg">
<path d="M24.4998 22.4583C26.6658 22.4583 28.743 21.5979 30.2745 20.0664C31.8061 18.5348 32.6665 16.4576 32.6665 14.2917C32.6665 12.1257 31.8061 10.0485 30.2745 8.51696C28.743 6.98541 26.6658 6.125 24.4998 6.125C22.3339 6.125 20.2567 6.98541 18.7251 8.51696C17.1936 10.0485 16.3332 12.1257 16.3332 14.2917C16.3332 16.4576 17.1936 18.5348 18.7251 20.0664C20.2567 21.5979 22.3339 22.4583 24.4998 22.4583ZM24.4998 26.5417C21.3298 26.5393 18.2029 27.2762 15.3676 28.6939C12.5323 30.1115 10.0666 32.1709 8.1665 34.7083C10.0666 37.2458 12.5323 39.3051 15.3676 40.7228C18.2029 42.1405 21.3298 42.8774 24.4998 42.875C27.6698 42.8774 30.7967 42.1405 33.6321 40.7228C36.4674 39.3051 38.9331 37.2458 40.8332 34.7083C38.9331 32.1709 36.4674 30.1115 33.6321 28.6939C30.7967 27.2762 27.6698 26.5393 24.4998 26.5417Z" fill="#1B81BA"/>
</svg>
